<svg xmlns="http://www.w3.org/2000/svg" xmlns:xlink="http://www.w3.org/1999/xlink" width="500" zoomAndPan="magnify" viewBox="0 0 375 374.999991" height="500" preserveAspectRatio="xMidYMid meet" version="1.0"><defs><filter x="0%" y="0%" width="100%" height="100%" id="49582b87c8"><feColorMatrix values="0 0 0 0 1 0 0 0 0 1 0 0 0 0 1 0 0 0 1 0" color-interpolation-filters="sRGB"/></filter><mask id="b90b41d387"><g filter="url(#49582b87c8)"><rect x="-37.5" width="450" fill="#000000" y="-37.499999" height="449.999989" fill-opacity="0.8"/></g></mask><clipPath id="1ac57c48ff"><path d="M 0.382812 0.753906 L 78.617188 0.753906 L 78.617188 160.273438 L 0.382812 160.273438 Z M 0.382812 0.753906 " clip-rule="nonzero"/></clipPath><clipPath id="1499392acb"><path d="M 39.5 0.753906 C 49.875 0.753906 59.824219 4.875 67.160156 12.210938 C 74.496094 19.546875 78.617188 29.496094 78.617188 39.867188 L 78.617188 121.132812 C 78.617188 131.503906 74.496094 141.453125 67.160156 148.789062 C 59.824219 156.125 49.875 160.246094 39.5 160.246094 C 29.125 160.246094 19.175781 156.125 11.839844 148.789062 C 4.503906 141.453125 0.382812 131.503906 0.382812 121.132812 L 0.382812 39.867188 C 0.382812 29.496094 4.503906 19.546875 11.839844 12.210938 C 19.175781 4.875 29.125 0.753906 39.5 0.753906 Z M 39.5 0.753906 " clip-rule="nonzero"/></clipPath><clipPath id="d8d42ca5f4"><rect x="0" width="79" y="0" height="161"/></clipPath><mask id="45d5268536"><g filter="url(#49582b87c8)"><rect x="-37.5" width="450" fill="#000000" y="-37.499999" height="449.999989" fill-opacity="0.8"/></g></mask><clipPath id="c9a6b9c6c6"><path d="M 0.265625 0.722656 L 78.5 0.722656 L 78.5 120.515625 L 0.265625 120.515625 Z M 0.265625 0.722656 " clip-rule="nonzero"/></clipPath><clipPath id="e5d4f52e96"><path d="M 39.382812 0.722656 C 49.757812 0.722656 59.707031 4.84375 67.042969 12.179688 C 74.378906 19.515625 78.5 29.464844 78.5 39.839844 L 78.5 81.160156 C 78.5 91.535156 74.378906 101.484375 67.042969 108.820312 C 59.707031 116.15625 49.757812 120.277344 39.382812 120.277344 C 29.007812 120.277344 19.058594 116.15625 11.722656 108.820312 C 4.386719 101.484375 0.265625 91.535156 0.265625 81.160156 L 0.265625 39.839844 C 0.265625 29.464844 4.386719 19.515625 11.722656 12.179688 C 19.058594 4.84375 29.007812 0.722656 39.382812 0.722656 Z M 39.382812 0.722656 " clip-rule="nonzero"/></clipPath><clipPath id="f933045260"><rect x="0" width="79" y="0" height="121"/></clipPath><mask id="a696f316fa"><g filter="url(#49582b87c8)"><rect x="-37.5" width="450" fill="#000000" y="-37.499999" height="449.999989" fill-opacity="0.8"/></g></mask><clipPath id="cd74bb523e"><path d="M 0.617188 1.007812 L 83.601562 1.007812 L 83.601562 83.992188 L 0.617188 83.992188 Z M 0.617188 1.007812 " clip-rule="nonzero"/></clipPath><clipPath id="f26be5b0a6"><path d="M 42.109375 1.007812 C 19.191406 1.007812 0.617188 19.585938 0.617188 42.5 C 0.617188 65.414062 19.191406 83.992188 42.109375 83.992188 C 65.023438 83.992188 83.601562 65.414062 83.601562 42.5 C 83.601562 19.585938 65.023438 1.007812 42.109375 1.007812 Z M 42.109375 1.007812 " clip-rule="nonzero"/></clipPath><clipPath id="1ccd75f7bc"><rect x="0" width="84" y="0" height="85"/></clipPath><mask id="87b2ebb7a1"><g filter="url(#49582b87c8)"><rect x="-37.5" width="450" fill="#000000" y="-37.499999" height="449.999989" fill-opacity="0.8"/></g></mask><clipPath id="5b0be0fbca"><path d="M 0.5 0.722656 L 78.734375 0.722656 L 78.734375 120.515625 L 0.5 120.515625 Z M 0.5 0.722656 " clip-rule="nonzero"/></clipPath><clipPath id="34654f7795"><path d="M 39.617188 0.722656 C 49.992188 0.722656 59.941406 4.84375 67.277344 12.179688 C 74.613281 19.515625 78.734375 29.464844 78.734375 39.839844 L 78.734375 81.160156 C 78.734375 91.535156 74.613281 101.484375 67.277344 108.820312 C 59.941406 116.15625 49.992188 120.277344 39.617188 120.277344 C 29.242188 120.277344 19.292969 116.15625 11.957031 108.820312 C 4.621094 101.484375 0.5 91.535156 0.5 81.160156 L 0.5 39.839844 C 0.5 29.464844 4.621094 19.515625 11.957031 12.179688 C 19.292969 4.84375 29.242188 0.722656 39.617188 0.722656 Z M 39.617188 0.722656 " clip-rule="nonzero"/></clipPath><clipPath id="7e3ee12f33"><rect x="0" width="79" y="0" height="121"/></clipPath><mask id="0f41a32b77"><g filter="url(#49582b87c8)"><rect x="-37.5" width="450" fill="#000000" y="-37.499999" height="449.999989" fill-opacity="0.8"/></g></mask><clipPath id="b053763899"><path d="M 0.398438 1.007812 L 83.382812 1.007812 L 83.382812 83.992188 L 0.398438 83.992188 Z M 0.398438 1.007812 " clip-rule="nonzero"/></clipPath><clipPath id="be6f8c590a"><path d="M 41.890625 1.007812 C 18.976562 1.007812 0.398438 19.585938 0.398438 42.5 C 0.398438 65.414062 18.976562 83.992188 41.890625 83.992188 C 64.808594 83.992188 83.382812 65.414062 83.382812 42.5 C 83.382812 19.585938 64.808594 1.007812 41.890625 1.007812 Z M 41.890625 1.007812 " clip-rule="nonzero"/></clipPath><clipPath id="79f269b31e"><rect x="0" width="84" y="0" height="85"/></clipPath></defs><g mask="url(#b90b41d387)"><g transform="matrix(1, 0, 0, 1, 148, 107)"><g clip-path="url(#d8d42ca5f4)"><g clip-path="url(#1ac57c48ff)"><g clip-path="url(#1499392acb)"><path fill="#f75171" d="M 0.382812 0.753906 L 78.617188 0.753906 L 78.617188 160.273438 L 0.382812 160.273438 Z M 0.382812 0.753906 " fill-opacity="1" fill-rule="nonzero"/></g></g></g></g></g><g mask="url(#45d5268536)"><g transform="matrix(1, 0, 0, 1, 109, 127)"><g clip-path="url(#f933045260)"><g clip-path="url(#c9a6b9c6c6)"><g clip-path="url(#e5d4f52e96)"><path fill="#ef9c53" d="M 0.265625 0.722656 L 78.5 0.722656 L 78.5 120.210938 L 0.265625 120.210938 Z M 0.265625 0.722656 " fill-opacity="1" fill-rule="nonzero"/></g></g></g></g></g><g mask="url(#a696f316fa)"><g transform="matrix(1, 0, 0, 1, 226, 145)"><g clip-path="url(#1ccd75f7bc)"><g clip-path="url(#cd74bb523e)"><g clip-path="url(#f26be5b0a6)"><path fill="#5d00a8" d="M 0.617188 1.007812 L 83.601562 1.007812 L 83.601562 83.992188 L 0.617188 83.992188 Z M 0.617188 1.007812 " fill-opacity="1" fill-rule="nonzero"/></g></g></g></g></g><g mask="url(#87b2ebb7a1)"><g transform="matrix(1, 0, 0, 1, 187, 127)"><g clip-path="url(#7e3ee12f33)"><g clip-path="url(#5b0be0fbca)"><g clip-path="url(#34654f7795)"><path fill="#8b0090" d="M 0.5 0.722656 L 78.734375 0.722656 L 78.734375 120.210938 L 0.5 120.210938 Z M 0.5 0.722656 " fill-opacity="1" fill-rule="nonzero"/></g></g></g></g></g><g mask="url(#0f41a32b77)"><g transform="matrix(1, 0, 0, 1, 65, 145)"><g clip-path="url(#79f269b31e)"><g clip-path="url(#b053763899)"><g clip-path="url(#be6f8c590a)"><path fill="#f6bd4f" d="M 0.398438 1.007812 L 83.382812 1.007812 L 83.382812 83.992188 L 0.398438 83.992188 Z M 0.398438 1.007812 " fill-opacity="1" fill-rule="nonzero"/></g></g></g></g></g></svg>