<svg xmlns="http://www.w3.org/2000/svg" xmlns:xlink="http://www.w3.org/1999/xlink" width="500" zoomAndPan="magnify" viewBox="0 0 375 374.999991" height="500" preserveAspectRatio="xMidYMid meet" version="1.0"><defs><filter x="0%" y="0%" width="100%" height="100%" id="e5f4c911b2"><feColorMatrix values="0 0 0 0 1 0 0 0 0 1 0 0 0 0 1 0 0 0 1 0" color-interpolation-filters="sRGB"/></filter><g/><mask id="48f7451d99"><g filter="url(#e5f4c911b2)"><rect x="-37.5" width="450" fill="#000000" y="-37.499999" height="449.999989" fill-opacity="0.8"/></g></mask><clipPath id="5f9c5add88"><path d="M 0.382812 0.835938 L 78.617188 0.835938 L 78.617188 160.355469 L 0.382812 160.355469 Z M 0.382812 0.835938 " clip-rule="nonzero"/></clipPath><clipPath id="7c9c127706"><path d="M 39.5 0.835938 C 49.875 0.835938 59.824219 4.957031 67.160156 12.292969 C 74.496094 19.628906 78.617188 29.578125 78.617188 39.953125 L 78.617188 121.214844 C 78.617188 131.589844 74.496094 141.539062 67.160156 148.875 C 59.824219 156.210938 49.875 160.332031 39.5 160.332031 C 29.125 160.332031 19.175781 156.210938 11.839844 148.875 C 4.503906 141.539062 0.382812 131.589844 0.382812 121.214844 L 0.382812 39.953125 C 0.382812 29.578125 4.503906 19.628906 11.839844 12.292969 C 19.175781 4.957031 29.125 0.835938 39.5 0.835938 Z M 39.5 0.835938 " clip-rule="nonzero"/></clipPath><clipPath id="60eaa623de"><rect x="0" width="79" y="0" height="161"/></clipPath><mask id="5ae1117b4b"><g filter="url(#e5f4c911b2)"><rect x="-37.5" width="450" fill="#000000" y="-37.499999" height="449.999989" fill-opacity="0.8"/></g></mask><clipPath id="f4c127d53b"><path d="M 0.265625 0.808594 L 78.5 0.808594 L 78.5 120.601562 L 0.265625 120.601562 Z M 0.265625 0.808594 " clip-rule="nonzero"/></clipPath><clipPath id="05f5aa8bd8"><path d="M 39.382812 0.808594 C 49.757812 0.808594 59.707031 4.929688 67.042969 12.265625 C 74.378906 19.601562 78.5 29.550781 78.5 39.921875 L 78.5 81.242188 C 78.5 91.617188 74.378906 101.566406 67.042969 108.902344 C 59.707031 116.238281 49.757812 120.359375 39.382812 120.359375 C 29.007812 120.359375 19.058594 116.238281 11.722656 108.902344 C 4.386719 101.566406 0.265625 91.617188 0.265625 81.242188 L 0.265625 39.921875 C 0.265625 29.550781 4.386719 19.601562 11.722656 12.265625 C 19.058594 4.929688 29.007812 0.808594 39.382812 0.808594 Z M 39.382812 0.808594 " clip-rule="nonzero"/></clipPath><clipPath id="e25a7ebf1e"><rect x="0" width="79" y="0" height="121"/></clipPath><mask id="0ce2dfcd7a"><g filter="url(#e5f4c911b2)"><rect x="-37.5" width="450" fill="#000000" y="-37.499999" height="449.999989" fill-opacity="0.8"/></g></mask><clipPath id="f1a34962e5"><path d="M 0.617188 1.089844 L 83.601562 1.089844 L 83.601562 84.074219 L 0.617188 84.074219 Z M 0.617188 1.089844 " clip-rule="nonzero"/></clipPath><clipPath id="7e5733979c"><path d="M 42.109375 1.089844 C 19.191406 1.089844 0.617188 19.667969 0.617188 42.582031 C 0.617188 65.5 19.191406 84.074219 42.109375 84.074219 C 65.023438 84.074219 83.601562 65.5 83.601562 42.582031 C 83.601562 19.667969 65.023438 1.089844 42.109375 1.089844 Z M 42.109375 1.089844 " clip-rule="nonzero"/></clipPath><clipPath id="352d812509"><rect x="0" width="84" y="0" height="85"/></clipPath><mask id="66c7b84d52"><g filter="url(#e5f4c911b2)"><rect x="-37.5" width="450" fill="#000000" y="-37.499999" height="449.999989" fill-opacity="0.8"/></g></mask><clipPath id="b558805b57"><path d="M 0.5 0.808594 L 78.734375 0.808594 L 78.734375 120.601562 L 0.5 120.601562 Z M 0.5 0.808594 " clip-rule="nonzero"/></clipPath><clipPath id="aa2158936c"><path d="M 39.617188 0.808594 C 49.992188 0.808594 59.941406 4.929688 67.277344 12.265625 C 74.613281 19.601562 78.734375 29.550781 78.734375 39.921875 L 78.734375 81.242188 C 78.734375 91.617188 74.613281 101.566406 67.277344 108.902344 C 59.941406 116.238281 49.992188 120.359375 39.617188 120.359375 C 29.242188 120.359375 19.292969 116.238281 11.957031 108.902344 C 4.621094 101.566406 0.5 91.617188 0.5 81.242188 L 0.5 39.921875 C 0.5 29.550781 4.621094 19.601562 11.957031 12.265625 C 19.292969 4.929688 29.242188 0.808594 39.617188 0.808594 Z M 39.617188 0.808594 " clip-rule="nonzero"/></clipPath><clipPath id="56e8b0bfff"><rect x="0" width="79" y="0" height="121"/></clipPath><mask id="f0a3f20afa"><g filter="url(#e5f4c911b2)"><rect x="-37.5" width="450" fill="#000000" y="-37.499999" height="449.999989" fill-opacity="0.8"/></g></mask><clipPath id="6c4d777eeb"><path d="M 0.398438 1.089844 L 83.382812 1.089844 L 83.382812 84.074219 L 0.398438 84.074219 Z M 0.398438 1.089844 " clip-rule="nonzero"/></clipPath><clipPath id="0d359d140b"><path d="M 41.890625 1.089844 C 18.976562 1.089844 0.398438 19.667969 0.398438 42.582031 C 0.398438 65.5 18.976562 84.074219 41.890625 84.074219 C 64.808594 84.074219 83.382812 65.5 83.382812 42.582031 C 83.382812 19.667969 64.808594 1.089844 41.890625 1.089844 Z M 41.890625 1.089844 " clip-rule="nonzero"/></clipPath><clipPath id="2de49f3c9e"><rect x="0" width="84" y="0" height="85"/></clipPath></defs><g mask="url(#48f7451d99)"><g transform="matrix(1, 0, 0, 1, 148, 84)"><g clip-path="url(#60eaa623de)"><g clip-path="url(#5f9c5add88)"><g clip-path="url(#7c9c127706)"><path fill="#f75171" d="M 0.382812 0.835938 L 78.617188 0.835938 L 78.617188 160.355469 L 0.382812 160.355469 Z M 0.382812 0.835938 " fill-opacity="1" fill-rule="nonzero"/></g></g></g></g></g><g mask="url(#5ae1117b4b)"><g transform="matrix(1, 0, 0, 1, 109, 104)"><g clip-path="url(#e25a7ebf1e)"><g clip-path="url(#f4c127d53b)"><g clip-path="url(#05f5aa8bd8)"><path fill="#ef9c53" d="M 0.265625 0.808594 L 78.5 0.808594 L 78.5 120.296875 L 0.265625 120.296875 Z M 0.265625 0.808594 " fill-opacity="1" fill-rule="nonzero"/></g></g></g></g></g><g mask="url(#0ce2dfcd7a)"><g transform="matrix(1, 0, 0, 1, 226, 122)"><g clip-path="url(#352d812509)"><g clip-path="url(#f1a34962e5)"><g clip-path="url(#7e5733979c)"><path fill="#5d00a8" d="M 0.617188 1.089844 L 83.601562 1.089844 L 83.601562 84.074219 L 0.617188 84.074219 Z M 0.617188 1.089844 " fill-opacity="1" fill-rule="nonzero"/></g></g></g></g></g><g mask="url(#66c7b84d52)"><g transform="matrix(1, 0, 0, 1, 187, 104)"><g clip-path="url(#56e8b0bfff)"><g clip-path="url(#b558805b57)"><g clip-path="url(#aa2158936c)"><path fill="#8b0090" d="M 0.5 0.808594 L 78.734375 0.808594 L 78.734375 120.296875 L 0.5 120.296875 Z M 0.5 0.808594 " fill-opacity="1" fill-rule="nonzero"/></g></g></g></g></g><g mask="url(#f0a3f20afa)"><g transform="matrix(1, 0, 0, 1, 65, 122)"><g clip-path="url(#2de49f3c9e)"><g clip-path="url(#6c4d777eeb)"><g clip-path="url(#0d359d140b)"><path fill="#f6bd4f" d="M 0.398438 1.089844 L 83.382812 1.089844 L 83.382812 84.074219 L 0.398438 84.074219 Z M 0.398438 1.089844 " fill-opacity="1" fill-rule="nonzero"/></g></g></g></g></g><g fill="#000000" fill-opacity="1"><g transform="translate(77.083696, 307.545126)"><g><path d="M 12.75 -26.34375 L 12.75 0 L 3.09375 0 L 3.09375 -42.4375 L 12.75 -42.4375 L 29.625 -16.09375 L 29.734375 -16.09375 L 29.734375 -42.4375 L 39.40625 -42.4375 L 39.40625 0 L 29.734375 0 L 12.859375 -26.34375 Z M 12.75 -26.34375 "/></g></g></g><g fill="#000000" fill-opacity="1"><g transform="translate(119.567915, 307.545126)"><g><path d="M 29.78125 -11.9375 L 10.640625 -11.9375 C 10.640625 -10.082031 11.238281 -8.707031 12.4375 -7.8125 C 13.644531 -6.925781 14.953125 -6.484375 16.359375 -6.484375 C 17.828125 -6.484375 18.988281 -6.679688 19.84375 -7.078125 C 20.707031 -7.472656 21.6875 -8.25 22.78125 -9.40625 L 29.375 -6.125 C 26.625 -1.53125 22.0625 0.765625 15.6875 0.765625 C 11.707031 0.765625 8.296875 -0.59375 5.453125 -3.3125 C 2.609375 -6.039062 1.1875 -9.320312 1.1875 -13.15625 C 1.1875 -17 2.609375 -20.289062 5.453125 -23.03125 C 8.296875 -25.78125 11.707031 -27.15625 15.6875 -27.15625 C 19.875 -27.15625 23.273438 -25.945312 25.890625 -23.53125 C 28.515625 -21.113281 29.828125 -17.660156 29.828125 -13.171875 C 29.828125 -12.546875 29.8125 -12.132812 29.78125 -11.9375 Z M 10.90625 -16.96875 L 20.9375 -16.96875 C 20.726562 -18.34375 20.1875 -19.398438 19.3125 -20.140625 C 18.4375 -20.878906 17.316406 -21.25 15.953125 -21.25 C 14.441406 -21.25 13.238281 -20.851562 12.34375 -20.0625 C 11.445312 -19.269531 10.96875 -18.238281 10.90625 -16.96875 Z M 10.90625 -16.96875 "/></g></g></g><g fill="#000000" fill-opacity="1"><g transform="translate(150.58242, 307.545126)"><g><path d="M 33.640625 0 L 22.625 0 L 16.8125 -7.453125 L 11 0 L 0 0 L 11.265625 -13.78125 L 1.59375 -26.390625 L 12.234375 -26.390625 L 16.8125 -20.265625 L 21.390625 -26.390625 L 32.046875 -26.390625 L 22.375 -13.78125 Z M 33.640625 0 "/></g></g></g><g fill="#000000" fill-opacity="1"><g transform="translate(184.220049, 307.545126)"><g><path d="M 11.671875 -26.390625 L 11.671875 -13.84375 C 11.671875 -11.226562 12.066406 -9.375 12.859375 -8.28125 C 13.648438 -7.1875 14.988281 -6.640625 16.875 -6.640625 C 18.757812 -6.640625 20.09375 -7.1875 20.875 -8.28125 C 21.664062 -9.375 22.0625 -11.226562 22.0625 -13.84375 L 22.0625 -26.390625 L 31.171875 -26.390625 L 31.171875 -11.625 C 31.171875 -7.238281 30.03125 -4.078125 27.75 -2.140625 C 25.46875 -0.203125 21.835938 0.765625 16.859375 0.765625 C 11.890625 0.765625 8.265625 -0.203125 5.984375 -2.140625 C 3.710938 -4.078125 2.578125 -7.238281 2.578125 -11.625 L 2.578125 -26.390625 Z M 11.671875 -26.390625 "/></g></g></g><g fill="#000000" fill-opacity="1"><g transform="translate(217.960548, 307.545126)"><g><path d="M 4.625 -26.390625 L 4.625 -36.21875 L 13.734375 -36.21875 L 13.734375 -26.390625 L 19.296875 -26.390625 L 19.296875 -19.4375 L 13.734375 -19.4375 L 13.734375 -11.0625 C 13.734375 -8.625 14.421875 -7.40625 15.796875 -7.40625 C 16.140625 -7.40625 16.5 -7.472656 16.875 -7.609375 C 17.25 -7.742188 17.539062 -7.882812 17.75 -8.03125 L 18.046875 -8.234375 L 20.3125 -0.875 C 18.363281 0.21875 16.132812 0.765625 13.625 0.765625 C 11.914062 0.765625 10.441406 0.46875 9.203125 -0.125 C 7.972656 -0.726562 7.039062 -1.535156 6.40625 -2.546875 C 5.769531 -3.554688 5.3125 -4.617188 5.03125 -5.734375 C 4.757812 -6.847656 4.625 -8.039062 4.625 -9.3125 L 4.625 -19.4375 L 0.828125 -19.4375 L 0.828125 -26.390625 Z M 4.625 -26.390625 "/></g></g></g><g fill="#000000" fill-opacity="1"><g transform="translate(238.276853, 307.545126)"><g><path d="M 5.578125 -3.140625 C 2.648438 -5.742188 1.1875 -9.085938 1.1875 -13.171875 C 1.1875 -17.253906 2.710938 -20.601562 5.765625 -23.21875 C 8.816406 -25.84375 12.585938 -27.15625 17.078125 -27.15625 C 21.503906 -27.15625 25.234375 -25.832031 28.265625 -23.1875 C 31.296875 -20.550781 32.8125 -17.207031 32.8125 -13.15625 C 32.8125 -9.113281 31.328125 -5.78125 28.359375 -3.15625 C 25.398438 -0.539062 21.640625 0.765625 17.078125 0.765625 C 12.347656 0.765625 8.515625 -0.535156 5.578125 -3.140625 Z M 12.625 -17.640625 C 11.445312 -16.472656 10.859375 -14.976562 10.859375 -13.15625 C 10.859375 -11.34375 11.421875 -9.863281 12.546875 -8.71875 C 13.679688 -7.570312 15.175781 -7 17.03125 -7 C 18.8125 -7 20.273438 -7.582031 21.421875 -8.75 C 22.566406 -9.914062 23.140625 -11.390625 23.140625 -13.171875 C 23.140625 -14.984375 22.546875 -16.472656 21.359375 -17.640625 C 20.179688 -18.804688 18.738281 -19.390625 17.03125 -19.390625 C 15.28125 -19.390625 13.8125 -18.804688 12.625 -17.640625 Z M 12.625 -17.640625 "/></g></g></g><g fill="#000000" fill-opacity="1"><g transform="translate(272.274524, 307.545126)"><g><path d="M 3.09375 0 L 3.09375 -26.390625 L 12.1875 -26.390625 L 12.1875 -22.578125 L 12.296875 -22.578125 C 12.359375 -22.710938 12.46875 -22.882812 12.625 -23.09375 C 12.78125 -23.300781 13.113281 -23.660156 13.625 -24.171875 C 14.144531 -24.691406 14.695312 -25.15625 15.28125 -25.5625 C 15.863281 -25.976562 16.613281 -26.347656 17.53125 -26.671875 C 18.457031 -26.992188 19.40625 -27.15625 20.375 -27.15625 C 21.363281 -27.15625 22.335938 -27.019531 23.296875 -26.75 C 24.253906 -26.476562 24.957031 -26.203125 25.40625 -25.921875 L 26.125 -25.515625 L 22.328125 -17.796875 C 21.191406 -18.753906 19.613281 -19.234375 17.59375 -19.234375 C 16.5 -19.234375 15.554688 -18.992188 14.765625 -18.515625 C 13.972656 -18.035156 13.414062 -17.453125 13.09375 -16.765625 C 12.769531 -16.078125 12.535156 -15.492188 12.390625 -15.015625 C 12.253906 -14.535156 12.1875 -14.160156 12.1875 -13.890625 L 12.1875 0 Z M 3.09375 0 "/></g></g></g></svg>