<svg xmlns="http://www.w3.org/2000/svg" xmlns:xlink="http://www.w3.org/1999/xlink" width="500" zoomAndPan="magnify" viewBox="0 0 375 374.999991" height="500" preserveAspectRatio="xMidYMid meet" version="1.0"><defs><filter x="0%" y="0%" width="100%" height="100%" id="02f1d74457"><feColorMatrix values="0 0 0 0 1 0 0 0 0 1 0 0 0 0 1 0 0 0 1 0" color-interpolation-filters="sRGB"/></filter><g/><mask id="415796f789"><g filter="url(#02f1d74457)"><rect x="-37.5" width="450" fill="#000000" y="-37.499999" height="449.999989" fill-opacity="0.8"/></g></mask><clipPath id="82365447d2"><path d="M 0.382812 0.835938 L 78.617188 0.835938 L 78.617188 160.355469 L 0.382812 160.355469 Z M 0.382812 0.835938 " clip-rule="nonzero"/></clipPath><clipPath id="facc3089bf"><path d="M 39.5 0.835938 C 49.875 0.835938 59.824219 4.957031 67.160156 12.292969 C 74.496094 19.628906 78.617188 29.578125 78.617188 39.953125 L 78.617188 121.214844 C 78.617188 131.589844 74.496094 141.539062 67.160156 148.875 C 59.824219 156.210938 49.875 160.332031 39.5 160.332031 C 29.125 160.332031 19.175781 156.210938 11.839844 148.875 C 4.503906 141.539062 0.382812 131.589844 0.382812 121.214844 L 0.382812 39.953125 C 0.382812 29.578125 4.503906 19.628906 11.839844 12.292969 C 19.175781 4.957031 29.125 0.835938 39.5 0.835938 Z M 39.5 0.835938 " clip-rule="nonzero"/></clipPath><clipPath id="46ffabda28"><rect x="0" width="79" y="0" height="161"/></clipPath><mask id="3256cd6bf9"><g filter="url(#02f1d74457)"><rect x="-37.5" width="450" fill="#000000" y="-37.499999" height="449.999989" fill-opacity="0.8"/></g></mask><clipPath id="c174c1b125"><path d="M 0.265625 0.808594 L 78.5 0.808594 L 78.5 120.601562 L 0.265625 120.601562 Z M 0.265625 0.808594 " clip-rule="nonzero"/></clipPath><clipPath id="3e104c0dcd"><path d="M 39.382812 0.808594 C 49.757812 0.808594 59.707031 4.929688 67.042969 12.265625 C 74.378906 19.601562 78.5 29.550781 78.5 39.921875 L 78.5 81.242188 C 78.5 91.617188 74.378906 101.566406 67.042969 108.902344 C 59.707031 116.238281 49.757812 120.359375 39.382812 120.359375 C 29.007812 120.359375 19.058594 116.238281 11.722656 108.902344 C 4.386719 101.566406 0.265625 91.617188 0.265625 81.242188 L 0.265625 39.921875 C 0.265625 29.550781 4.386719 19.601562 11.722656 12.265625 C 19.058594 4.929688 29.007812 0.808594 39.382812 0.808594 Z M 39.382812 0.808594 " clip-rule="nonzero"/></clipPath><clipPath id="50f7d977be"><rect x="0" width="79" y="0" height="121"/></clipPath><mask id="733697abe3"><g filter="url(#02f1d74457)"><rect x="-37.5" width="450" fill="#000000" y="-37.499999" height="449.999989" fill-opacity="0.8"/></g></mask><clipPath id="eda362b449"><path d="M 0.617188 1.089844 L 83.601562 1.089844 L 83.601562 84.074219 L 0.617188 84.074219 Z M 0.617188 1.089844 " clip-rule="nonzero"/></clipPath><clipPath id="46be8f44a3"><path d="M 42.109375 1.089844 C 19.191406 1.089844 0.617188 19.667969 0.617188 42.582031 C 0.617188 65.5 19.191406 84.074219 42.109375 84.074219 C 65.023438 84.074219 83.601562 65.5 83.601562 42.582031 C 83.601562 19.667969 65.023438 1.089844 42.109375 1.089844 Z M 42.109375 1.089844 " clip-rule="nonzero"/></clipPath><clipPath id="ae0f545598"><rect x="0" width="84" y="0" height="85"/></clipPath><mask id="0aa9780f69"><g filter="url(#02f1d74457)"><rect x="-37.5" width="450" fill="#000000" y="-37.499999" height="449.999989" fill-opacity="0.8"/></g></mask><clipPath id="24e73bf847"><path d="M 0.5 0.808594 L 78.734375 0.808594 L 78.734375 120.601562 L 0.5 120.601562 Z M 0.5 0.808594 " clip-rule="nonzero"/></clipPath><clipPath id="9435d891e5"><path d="M 39.617188 0.808594 C 49.992188 0.808594 59.941406 4.929688 67.277344 12.265625 C 74.613281 19.601562 78.734375 29.550781 78.734375 39.921875 L 78.734375 81.242188 C 78.734375 91.617188 74.613281 101.566406 67.277344 108.902344 C 59.941406 116.238281 49.992188 120.359375 39.617188 120.359375 C 29.242188 120.359375 19.292969 116.238281 11.957031 108.902344 C 4.621094 101.566406 0.5 91.617188 0.5 81.242188 L 0.5 39.921875 C 0.5 29.550781 4.621094 19.601562 11.957031 12.265625 C 19.292969 4.929688 29.242188 0.808594 39.617188 0.808594 Z M 39.617188 0.808594 " clip-rule="nonzero"/></clipPath><clipPath id="e6613e0895"><rect x="0" width="79" y="0" height="121"/></clipPath><mask id="4b10f7d25f"><g filter="url(#02f1d74457)"><rect x="-37.5" width="450" fill="#000000" y="-37.499999" height="449.999989" fill-opacity="0.8"/></g></mask><clipPath id="2844ce9351"><path d="M 0.398438 1.089844 L 83.382812 1.089844 L 83.382812 84.074219 L 0.398438 84.074219 Z M 0.398438 1.089844 " clip-rule="nonzero"/></clipPath><clipPath id="1b4677484d"><path d="M 41.890625 1.089844 C 18.976562 1.089844 0.398438 19.667969 0.398438 42.582031 C 0.398438 65.5 18.976562 84.074219 41.890625 84.074219 C 64.808594 84.074219 83.382812 65.5 83.382812 42.582031 C 83.382812 19.667969 64.808594 1.089844 41.890625 1.089844 Z M 41.890625 1.089844 " clip-rule="nonzero"/></clipPath><clipPath id="654a27bc2f"><rect x="0" width="84" y="0" height="85"/></clipPath></defs><g mask="url(#415796f789)"><g transform="matrix(1, 0, 0, 1, 148, 84)"><g clip-path="url(#46ffabda28)"><g clip-path="url(#82365447d2)"><g clip-path="url(#facc3089bf)"><path fill="#f75171" d="M 0.382812 0.835938 L 78.617188 0.835938 L 78.617188 160.355469 L 0.382812 160.355469 Z M 0.382812 0.835938 " fill-opacity="1" fill-rule="nonzero"/></g></g></g></g></g><g mask="url(#3256cd6bf9)"><g transform="matrix(1, 0, 0, 1, 109, 104)"><g clip-path="url(#50f7d977be)"><g clip-path="url(#c174c1b125)"><g clip-path="url(#3e104c0dcd)"><path fill="#ef9c53" d="M 0.265625 0.808594 L 78.5 0.808594 L 78.5 120.296875 L 0.265625 120.296875 Z M 0.265625 0.808594 " fill-opacity="1" fill-rule="nonzero"/></g></g></g></g></g><g mask="url(#733697abe3)"><g transform="matrix(1, 0, 0, 1, 226, 122)"><g clip-path="url(#ae0f545598)"><g clip-path="url(#eda362b449)"><g clip-path="url(#46be8f44a3)"><path fill="#5d00a8" d="M 0.617188 1.089844 L 83.601562 1.089844 L 83.601562 84.074219 L 0.617188 84.074219 Z M 0.617188 1.089844 " fill-opacity="1" fill-rule="nonzero"/></g></g></g></g></g><g mask="url(#0aa9780f69)"><g transform="matrix(1, 0, 0, 1, 187, 104)"><g clip-path="url(#e6613e0895)"><g clip-path="url(#24e73bf847)"><g clip-path="url(#9435d891e5)"><path fill="#8b0090" d="M 0.5 0.808594 L 78.734375 0.808594 L 78.734375 120.296875 L 0.5 120.296875 Z M 0.5 0.808594 " fill-opacity="1" fill-rule="nonzero"/></g></g></g></g></g><g mask="url(#4b10f7d25f)"><g transform="matrix(1, 0, 0, 1, 65, 122)"><g clip-path="url(#654a27bc2f)"><g clip-path="url(#2844ce9351)"><g clip-path="url(#1b4677484d)"><path fill="#f6bd4f" d="M 0.398438 1.089844 L 83.382812 1.089844 L 83.382812 84.074219 L 0.398438 84.074219 Z M 0.398438 1.089844 " fill-opacity="1" fill-rule="nonzero"/></g></g></g></g></g><g fill="#000000" fill-opacity="1"><g transform="translate(139.330971, 281.67747)"><g><path d="M 5.5625 -11.484375 L 5.5625 0 L 1.34375 0 L 1.34375 -18.515625 L 5.5625 -18.515625 L 12.921875 -7.015625 L 12.96875 -7.015625 L 12.96875 -18.515625 L 17.1875 -18.515625 L 17.1875 0 L 12.96875 0 L 5.609375 -11.484375 Z M 5.5625 -11.484375 "/></g></g></g><g fill="#000000" fill-opacity="1"><g transform="translate(157.864487, 281.67747)"><g><path d="M 12.984375 -5.203125 L 4.640625 -5.203125 C 4.640625 -4.398438 4.898438 -3.800781 5.421875 -3.40625 C 5.953125 -3.019531 6.523438 -2.828125 7.140625 -2.828125 C 7.773438 -2.828125 8.28125 -2.910156 8.65625 -3.078125 C 9.03125 -3.253906 9.457031 -3.597656 9.9375 -4.109375 L 12.8125 -2.671875 C 11.613281 -0.660156 9.625 0.34375 6.84375 0.34375 C 5.101562 0.34375 3.613281 -0.25 2.375 -1.4375 C 1.132812 -2.632812 0.515625 -4.066406 0.515625 -5.734375 C 0.515625 -7.410156 1.132812 -8.847656 2.375 -10.046875 C 3.613281 -11.242188 5.101562 -11.84375 6.84375 -11.84375 C 8.664062 -11.84375 10.148438 -11.316406 11.296875 -10.265625 C 12.441406 -9.210938 13.015625 -7.707031 13.015625 -5.75 C 13.015625 -5.476562 13.003906 -5.296875 12.984375 -5.203125 Z M 4.75 -7.40625 L 9.125 -7.40625 C 9.039062 -8 8.804688 -8.457031 8.421875 -8.78125 C 8.046875 -9.101562 7.554688 -9.265625 6.953125 -9.265625 C 6.296875 -9.265625 5.769531 -9.09375 5.375 -8.75 C 4.988281 -8.40625 4.78125 -7.957031 4.75 -7.40625 Z M 4.75 -7.40625 "/></g></g></g><g fill="#000000" fill-opacity="1"><g transform="translate(171.394412, 281.67747)"><g><path d="M 14.671875 0 L 9.875 0 L 7.34375 -3.25 L 4.796875 0 L 0 0 L 4.90625 -6.015625 L 0.703125 -11.515625 L 5.34375 -11.515625 L 7.34375 -8.84375 L 9.328125 -11.515625 L 13.984375 -11.515625 L 9.765625 -6.015625 Z M 14.671875 0 "/></g></g></g><g fill="#000000" fill-opacity="1"><g transform="translate(186.068658, 281.67747)"><g><path d="M 5.09375 -11.515625 L 5.09375 -6.03125 C 5.09375 -4.894531 5.265625 -4.085938 5.609375 -3.609375 C 5.953125 -3.128906 6.535156 -2.890625 7.359375 -2.890625 C 8.179688 -2.890625 8.765625 -3.128906 9.109375 -3.609375 C 9.453125 -4.085938 9.625 -4.894531 9.625 -6.03125 L 9.625 -11.515625 L 13.59375 -11.515625 L 13.59375 -5.078125 C 13.59375 -3.160156 13.09375 -1.773438 12.09375 -0.921875 C 11.101562 -0.078125 9.523438 0.34375 7.359375 0.34375 C 5.191406 0.34375 3.609375 -0.078125 2.609375 -0.921875 C 1.617188 -1.773438 1.125 -3.160156 1.125 -5.078125 L 1.125 -11.515625 Z M 5.09375 -11.515625 "/></g></g></g><g fill="#000000" fill-opacity="1"><g transform="translate(200.787771, 281.67747)"><g><path d="M 2.015625 -11.515625 L 2.015625 -15.796875 L 5.984375 -15.796875 L 5.984375 -11.515625 L 8.421875 -11.515625 L 8.421875 -8.484375 L 5.984375 -8.484375 L 5.984375 -4.828125 C 5.984375 -3.765625 6.285156 -3.234375 6.890625 -3.234375 C 7.035156 -3.234375 7.191406 -3.257812 7.359375 -3.3125 C 7.523438 -3.375 7.648438 -3.4375 7.734375 -3.5 L 7.875 -3.59375 L 8.859375 -0.375 C 8.003906 0.101562 7.035156 0.34375 5.953125 0.34375 C 5.203125 0.34375 4.554688 0.210938 4.015625 -0.046875 C 3.472656 -0.316406 3.0625 -0.671875 2.78125 -1.109375 C 2.507812 -1.546875 2.3125 -2.007812 2.1875 -2.5 C 2.070312 -2.988281 2.015625 -3.507812 2.015625 -4.0625 L 2.015625 -8.484375 L 0.359375 -8.484375 L 0.359375 -11.515625 Z M 2.015625 -11.515625 "/></g></g></g><g fill="#000000" fill-opacity="1"><g transform="translate(209.650648, 281.67747)"><g><path d="M 2.4375 -1.359375 C 1.15625 -2.503906 0.515625 -3.96875 0.515625 -5.75 C 0.515625 -7.53125 1.179688 -8.988281 2.515625 -10.125 C 3.847656 -11.269531 5.492188 -11.84375 7.453125 -11.84375 C 9.378906 -11.84375 11.003906 -11.265625 12.328125 -10.109375 C 13.648438 -8.960938 14.3125 -7.503906 14.3125 -5.734375 C 14.3125 -3.972656 13.664062 -2.519531 12.375 -1.375 C 11.082031 -0.226562 9.441406 0.34375 7.453125 0.34375 C 5.390625 0.34375 3.71875 -0.222656 2.4375 -1.359375 Z M 5.5 -7.6875 C 4.988281 -7.1875 4.734375 -6.539062 4.734375 -5.75 C 4.734375 -4.957031 4.976562 -4.304688 5.46875 -3.796875 C 5.96875 -3.296875 6.617188 -3.046875 7.421875 -3.046875 C 8.203125 -3.046875 8.84375 -3.300781 9.34375 -3.8125 C 9.84375 -4.320312 10.09375 -4.96875 10.09375 -5.75 C 10.09375 -6.539062 9.832031 -7.1875 9.3125 -7.6875 C 8.800781 -8.195312 8.171875 -8.453125 7.421875 -8.453125 C 6.660156 -8.453125 6.019531 -8.195312 5.5 -7.6875 Z M 5.5 -7.6875 "/></g></g></g><g fill="#000000" fill-opacity="1"><g transform="translate(224.481952, 281.67747)"><g><path d="M 1.34375 0 L 1.34375 -11.515625 L 5.3125 -11.515625 L 5.3125 -9.84375 L 5.359375 -9.84375 C 5.390625 -9.90625 5.4375 -9.976562 5.5 -10.0625 C 5.570312 -10.15625 5.71875 -10.3125 5.9375 -10.53125 C 6.164062 -10.757812 6.40625 -10.960938 6.65625 -11.140625 C 6.914062 -11.328125 7.242188 -11.488281 7.640625 -11.625 C 8.046875 -11.769531 8.460938 -11.84375 8.890625 -11.84375 C 9.316406 -11.84375 9.738281 -11.78125 10.15625 -11.65625 C 10.582031 -11.539062 10.890625 -11.425781 11.078125 -11.3125 L 11.390625 -11.125 L 9.734375 -7.765625 C 9.242188 -8.179688 8.554688 -8.390625 7.671875 -8.390625 C 7.191406 -8.390625 6.78125 -8.285156 6.4375 -8.078125 C 6.09375 -7.867188 5.847656 -7.613281 5.703125 -7.3125 C 5.566406 -7.007812 5.46875 -6.753906 5.40625 -6.546875 C 5.34375 -6.335938 5.3125 -6.175781 5.3125 -6.0625 L 5.3125 0 Z M 1.34375 0 "/></g></g></g></svg>